# Blender v2.79 (sub 0) OBJ File: 'MNM_CW.blend'
# www.blender.org
mtllib MNM_CW.mtl
o Cube.002_Cube.014
v 2.000000 8.000000 1.000000
v 2.000000 10.000000 1.000000
v 2.000000 8.000000 -1.000000
v 2.000000 10.000000 -1.000000
v 4.000000 9.500000 1.000000
v 4.000000 10.000000 1.000000
v 4.000000 9.500000 -1.000000
v 4.000000 10.000000 -1.000000
vt 0.000000 0.000000
vt 1.000000 0.000000
vt 1.000000 1.000000
vt 0.000000 1.000000
vt 0.000000 0.000000
vt 1.000000 0.000000
vt 1.000000 1.000000
vt 0.000000 1.000000
vt 0.000000 0.000000
vt 1.000000 0.000000
vt 1.000000 1.000000
vt 0.000000 1.000000
vt 0.000000 0.000000
vt 1.000000 0.000000
vt 1.000000 1.000000
vt 0.000000 1.000000
vt 1.000000 0.000000
vt 1.000000 1.000000
vt 0.000000 0.000000
vt 0.000000 1.000000
vn -1.0000 0.0000 0.0000
vn 0.0000 0.0000 -1.0000
vn 1.0000 0.0000 0.0000
vn 0.0000 0.0000 1.0000
vn 0.6000 -0.8000 0.0000
vn 0.0000 1.0000 0.0000
usemtl None
s off
f 1/1/1 2/2/1 4/3/1 3/4/1
f 3/5/2 4/6/2 8/7/2 7/8/2
f 7/9/3 8/10/3 6/11/3 5/12/3
f 5/13/4 6/14/4 2/15/4 1/16/4
f 3/5/5 7/17/5 5/18/5 1/16/5
f 8/19/6 4/6/6 2/15/6 6/20/6
o Cube_Cube.001
v 2.000000 -10.000000 1.000000
v 2.000000 10.000000 1.000000
v -2.000000 -10.000000 1.000000
v -2.000000 10.000000 1.000000
v 2.000000 -10.000000 -1.000000
v 2.000000 10.000000 -1.000000
v -2.000000 -10.000000 -1.000000
v -2.000000 10.000000 -1.000000
v 4.000000 10.000000 1.000000
v 4.000000 14.000001 1.000000
v 2.000000 10.000000 1.000000
v 2.000000 14.000001 1.000000
v 4.000000 10.000000 -1.000000
v 4.000000 14.000001 -1.000000
v 2.000000 10.000000 -1.000000
v 2.000000 14.000001 -1.000000
v -2.000000 10.000000 1.000000
v -2.000000 14.000001 1.000000
v -4.000000 10.000000 1.000000
v -4.000000 14.000001 1.000000
v -2.000000 10.000000 -1.000000
v -2.000000 14.000001 -1.000000
v -4.000000 10.000000 -1.000000
v -4.000000 14.000001 -1.000000
v 4.000000 10.000000 1.000000
v 4.000000 10.000000 1.000000
v 4.000000 10.000000 -1.000000
v 4.000000 10.000000 -1.000000
v 0.000000 10.000000 1.000000
v 0.000000 10.000000 1.000000
v -0.000000 10.000000 -1.000000
v -0.000000 10.000000 -1.000000
v -2.000000 10.000000 -1.000000
v -2.000000 8.000001 -1.000000
v -4.000000 10.000000 -1.000000
v -4.000000 10.000000 -1.000000
v -2.000000 10.000000 1.000000
v -2.000000 8.000001 1.000000
v -4.000000 10.000000 1.000000
v -4.000000 10.000000 1.000000
v -2.000000 10.000000 -1.000000
v -2.000000 12.000000 -1.000000
v -0.000000 10.000000 -1.000000
v -0.000000 10.000000 -1.000000
v -2.000000 10.000000 1.000000
v -2.000000 12.000000 1.000000
v 0.000000 10.000000 1.000000
v 0.000000 10.000000 1.000000
v -4.000001 -9.999999 1.000000
v -4.000001 -14.000000 1.000000
v -2.000001 -10.000000 1.000000
v -2.000001 -14.000000 1.000000
v -4.000001 -9.999999 -1.000000
v -4.000001 -14.000000 -1.000000
v -2.000001 -10.000000 -1.000000
v -2.000001 -14.000000 -1.000000
v 1.999999 -10.000000 1.000000
v 1.999999 -14.000000 1.000000
v 3.999999 -10.000000 1.000000
v 3.999999 -14.000000 1.000000
v 1.999999 -10.000000 -1.000000
v 1.999999 -14.000000 -1.000000
v 3.999999 -10.000000 -1.000000
v 3.999999 -14.000000 -1.000000
v -2.000001 -10.000000 1.000000
v -2.000001 -8.000000 1.000000
v -4.000001 -9.999999 1.000000
v -4.000001 -9.500000 1.000000
v -2.000001 -10.000000 -1.000000
v -2.000001 -8.000000 -1.000000
v -4.000001 -9.999999 -1.000000
v -4.000001 -9.500000 -1.000000
v -2.000001 -10.000000 1.000000
v -2.000001 -12.000000 1.000000
v -0.000001 -10.000000 1.000000
v -0.000001 -10.500001 1.000000
v -2.000001 -10.000000 -1.000000
v -2.000001 -12.000000 -1.000000
v -0.000001 -10.000000 -1.000000
v -0.000001 -10.500001 -1.000000
v 2.000000 -10.000000 -1.000000
v 1.999999 -8.000000 -1.000000
v 4.000000 -10.000000 -1.000000
v 4.000000 -9.500000 -1.000000
v 1.999999 -10.000000 1.000000
v 1.999999 -8.000000 1.000000
v 3.999999 -10.000000 1.000000
v 3.999999 -9.500000 1.000000
v 1.999999 -10.000000 -1.000000
v 1.999999 -12.000000 -1.000000
v -0.000001 -10.000000 -1.000000
v -0.000001 -10.500001 -1.000000
v 1.999999 -10.000000 1.000000
v 1.999999 -12.000000 1.000000
v -0.000000 -10.000000 1.000000
v -0.000001 -10.500001 1.000000
vt 0.000000 0.000000
vt 1.000000 0.000000
vt 1.000000 1.000000
vt 0.000000 1.000000
vt 0.000000 0.000000
vt 1.000000 0.000000
vt 1.000000 1.000000
vt 0.000000 1.000000
vt 0.000000 0.000000
vt 1.000000 0.000000
vt 1.000000 1.000000
vt 0.000000 1.000000
vt 0.000000 0.000000
vt 1.000000 0.000000
vt 1.000000 1.000000
vt 0.000000 1.000000
vt 1.000000 0.000000
vt 1.000000 1.000000
vt 0.000000 0.000000
vt 0.000000 1.000000
vt 0.000000 0.000000
vt 1.000000 0.000000
vt 1.000000 1.000000
vt 0.000000 1.000000
vt 0.000000 0.000000
vt 1.000000 0.000000
vt 1.000000 1.000000
vt 0.000000 1.000000
vt 0.000000 0.000000
vt 1.000000 0.000000
vt 1.000000 1.000000
vt 0.000000 1.000000
vt 0.000000 0.000000
vt 1.000000 0.000000
vt 1.000000 1.000000
vt 0.000000 1.000000
vt 1.000000 0.000000
vt 1.000000 1.000000
vt 0.000000 0.000000
vt 0.000000 1.000000
vt 0.000000 0.000000
vt 1.000000 0.000000
vt 1.000000 1.000000
vt 0.000000 1.000000
vt 0.000000 0.000000
vt 1.000000 0.000000
vt 1.000000 1.000000
vt 0.000000 1.000000
vt 0.000000 0.000000
vt 1.000000 0.000000
vt 1.000000 1.000000
vt 0.000000 1.000000
vt 0.000000 0.000000
vt 1.000000 0.000000
vt 1.000000 1.000000
vt 0.000000 1.000000
vt 1.000000 0.000000
vt 1.000000 1.000000
vt 0.000000 0.000000
vt 0.000000 1.000000
vt 0.000000 0.000000
vt 1.000000 0.000000
vt 1.000000 1.000000
vt 0.000000 1.000000
vt 0.000000 0.000000
vt 1.000000 0.000000
vt 1.000000 1.000000
vt 0.000000 1.000000
vt 0.000000 0.000000
vt 1.000000 0.000000
vt 1.000000 1.000000
vt 0.000000 1.000000
vt 0.000000 0.000000
vt 1.000000 0.000000
vt 1.000000 1.000000
vt 0.000000 1.000000
vt 1.000000 0.000000
vt 1.000000 1.000000
vt 0.000000 0.000000
vt 1.000000 0.000000
vt 1.000000 1.000000
vt 0.000000 1.000000
vt 0.000000 0.000000
vt 1.000000 0.000000
vt 1.000000 1.000000
vt 0.000000 1.000000
vt 1.000000 0.000000
vt 1.000000 1.000000
vt 0.000000 0.000000
vt 1.000000 0.000000
vt 1.000000 1.000000
vt 0.000000 1.000000
vt 0.000000 0.000000
vt 1.000000 0.000000
vt 1.000000 1.000000
vt 0.000000 1.000000
vt 0.000000 0.000000
vt 1.000000 0.000000
vt 1.000000 1.000000
vt 0.000000 1.000000
vt 0.000000 0.000000
vt 1.000000 0.000000
vt 1.000000 1.000000
vt 0.000000 1.000000
vt 1.000000 0.000000
vt 1.000000 1.000000
vt 0.000000 0.000000
vt 0.000000 1.000000
vt 0.000000 0.000000
vt 1.000000 0.000000
vt 1.000000 1.000000
vt 0.000000 1.000000
vt 0.000000 0.000000
vt 1.000000 0.000000
vt 1.000000 1.000000
vt 0.000000 1.000000
vt 0.000000 0.000000
vt 1.000000 0.000000
vt 1.000000 1.000000
vt 0.000000 1.000000
vt 0.000000 0.000000
vt 1.000000 0.000000
vt 1.000000 1.000000
vt 0.000000 1.000000
vt 1.000000 0.000000
vt 1.000000 1.000000
vt 0.000000 0.000000
vt 0.000000 1.000000
vt 0.000000 0.000000
vt 1.000000 0.000000
vt 1.000000 1.000000
vt 0.000000 1.000000
vt 0.000000 0.000000
vt 1.000000 0.000000
vt 1.000000 1.000000
vt 0.000000 1.000000
vt 0.000000 0.000000
vt 1.000000 0.000000
vt 1.000000 1.000000
vt 0.000000 1.000000
vt 0.000000 0.000000
vt 1.000000 0.000000
vt 1.000000 1.000000
vt 0.000000 1.000000
vt 1.000000 0.000000
vt 1.000000 1.000000
vt 0.000000 0.000000
vt 0.000000 1.000000
vt 0.000000 0.000000
vt 1.000000 0.000000
vt 1.000000 1.000000
vt 0.000000 1.000000
vt 0.000000 0.000000
vt 1.000000 0.000000
vt 1.000000 1.000000
vt 0.000000 1.000000
vt 0.000000 0.000000
vt 1.000000 0.000000
vt 1.000000 1.000000
vt 0.000000 1.000000
vt 0.000000 0.000000
vt 1.000000 0.000000
vt 1.000000 1.000000
vt 0.000000 1.000000
vt 1.000000 0.000000
vt 1.000000 1.000000
vt 0.000000 0.000000
vt 0.000000 1.000000
vt 0.000000 0.000000
vt 1.000000 0.000000
vt 1.000000 1.000000
vt 0.000000 1.000000
vt 0.000000 0.000000
vt 1.000000 0.000000
vt 1.000000 1.000000
vt 0.000000 1.000000
vt 0.000000 0.000000
vt 1.000000 0.000000
vt 1.000000 1.000000
vt 0.000000 1.000000
vt 0.000000 0.000000
vt 1.000000 0.000000
vt 1.000000 1.000000
vt 0.000000 1.000000
vt 1.000000 0.000000
vt 1.000000 1.000000
vt 0.000000 0.000000
vt 0.000000 1.000000
vt 0.000000 0.000000
vt 1.000000 0.000000
vt 1.000000 1.000000
vt 0.000000 1.000000
vt 0.000000 0.000000
vt 1.000000 0.000000
vt 1.000000 1.000000
vt 0.000000 1.000000
vt 0.000000 0.000000
vt 1.000000 0.000000
vt 1.000000 1.000000
vt 0.000000 1.000000
vt 0.000000 0.000000
vt 1.000000 0.000000
vt 1.000000 1.000000
vt 0.000000 1.000000
vt 1.000000 0.000000
vt 1.000000 1.000000
vt 0.000000 0.000000
vt 0.000000 1.000000
vn 0.0000 0.0000 1.0000
vn -1.0000 0.0000 0.0000
vn -0.0000 0.0000 -1.0000
vn 1.0000 0.0000 0.0000
vn 0.0000 -1.0000 0.0000
vn 0.0000 1.0000 0.0000
vn -0.6000 0.8000 0.0000
vn 0.6000 -0.8000 -0.0000
vn 0.6000 0.8000 0.0000
vn -0.6000 -0.8000 0.0000
usemtl None
s off
f 9/21/7 10/22/7 12/23/7 11/24/7
f 11/25/8 12/26/8 16/27/8 15/28/8
f 15/29/9 16/30/9 14/31/9 13/32/9
f 13/33/10 14/34/10 10/35/10 9/36/10
f 11/25/11 15/37/11 13/38/11 9/36/11
f 16/39/12 12/26/12 10/35/12 14/40/12
f 17/41/7 18/42/7 20/43/7 19/44/7
f 19/45/8 20/46/8 24/47/8 23/48/8
f 23/49/9 24/50/9 22/51/9 21/52/9
f 21/53/10 22/54/10 18/55/10 17/56/10
f 19/45/11 23/57/11 21/58/11 17/56/11
f 24/59/12 20/46/12 18/55/12 22/60/12
f 25/61/7 26/62/7 28/63/7 27/64/7
f 27/65/8 28/66/8 32/67/8 31/68/8
f 31/69/9 32/70/9 30/71/9 29/72/9
f 29/73/10 30/74/10 26/75/10 25/76/10
f 27/65/11 31/77/11 29/78/11 25/76/11
f 32/79/12 28/66/12 26/75/12 30/80/12
f 33/81/7 34/82/7 36/83/7 35/84/7
f 37/85/7 38/86/7 40/87/7 39/88/7
f 43/89/7 44/90/7 48/91/7 47/92/7
f 45/93/10 46/94/10 42/95/10 41/96/10
f 43/89/12 47/97/12 45/98/12 41/96/12
f 51/99/7 52/100/7 56/101/7 55/102/7
f 53/103/8 54/104/8 50/105/8 49/106/8
f 51/99/11 55/107/11 53/108/11 49/106/11
f 57/109/7 58/110/7 60/111/7 59/112/7
f 59/113/10 60/114/10 64/115/10 63/116/10
f 63/117/9 64/118/9 62/119/9 61/120/9
f 61/121/8 62/122/8 58/123/8 57/124/8
f 59/113/12 63/125/12 61/126/12 57/124/12
f 64/127/11 60/114/11 58/123/11 62/128/11
f 65/129/7 66/130/7 68/131/7 67/132/7
f 67/133/10 68/134/10 72/135/10 71/136/10
f 71/137/9 72/138/9 70/139/9 69/140/9
f 69/141/8 70/142/8 66/143/8 65/144/8
f 67/133/12 71/145/12 69/146/12 65/144/12
f 72/147/11 68/134/11 66/143/11 70/148/11
f 73/149/7 74/150/7 76/151/7 75/152/7
f 75/153/8 76/154/8 80/155/8 79/156/8
f 79/157/9 80/158/9 78/159/9 77/160/9
f 77/161/10 78/162/10 74/163/10 73/164/10
f 75/153/11 79/165/11 77/166/11 73/164/11
f 80/167/13 76/154/13 74/163/13 78/168/13
f 81/169/7 82/170/7 84/171/7 83/172/7
f 83/173/10 84/174/10 88/175/10 87/176/10
f 87/177/9 88/178/9 86/179/9 85/180/9
f 85/181/8 86/182/8 82/183/8 81/184/8
f 83/173/12 87/185/12 85/186/12 81/184/12
f 88/187/14 84/174/14 82/183/14 86/188/14
f 89/189/9 90/190/9 92/191/9 91/192/9
f 91/193/10 92/194/10 96/195/10 95/196/10
f 95/197/7 96/198/7 94/199/7 93/200/7
f 93/201/8 94/202/8 90/203/8 89/204/8
f 91/193/11 95/205/11 93/206/11 89/204/11
f 96/207/15 92/194/15 90/203/15 94/208/15
f 97/209/9 98/210/9 100/211/9 99/212/9
f 99/213/8 100/214/8 104/215/8 103/216/8
f 103/217/7 104/218/7 102/219/7 101/220/7
f 101/221/10 102/222/10 98/223/10 97/224/10
f 99/213/12 103/225/12 101/226/12 97/224/12
f 104/227/16 100/214/16 98/223/16 102/228/16
o Cube.003_Cube.013
v -2.000000 10.000000 -1.000000
v -2.000000 8.000001 -1.000000
v -4.000000 10.000000 -1.000000
v -4.000000 9.499999 -1.000000
v -2.000000 10.000000 1.000000
v -2.000000 8.000001 1.000000
v -4.000000 10.000000 1.000000
v -4.000000 9.499998 1.000000
v -2.000000 10.000000 -1.000000
v -2.000000 12.000000 -1.000000
v -0.000000 10.000000 -1.000000
v -0.000000 10.500001 -1.000000
v -2.000000 10.000000 1.000000
v -2.000000 12.000000 1.000000
v 0.000000 10.000000 1.000000
v 0.000000 10.500000 1.000000
vt 0.000000 0.000000
vt 1.000000 0.000000
vt 1.000000 1.000000
vt 0.000000 1.000000
vt 0.000000 0.000000
vt 1.000000 0.000000
vt 1.000000 1.000000
vt 0.000000 1.000000
vt 0.000000 0.000000
vt 1.000000 0.000000
vt 1.000000 1.000000
vt 0.000000 1.000000
vt 0.000000 0.000000
vt 1.000000 0.000000
vt 1.000000 1.000000
vt 0.000000 1.000000
vt 0.000000 0.000000
vt 1.000000 0.000000
vt 1.000000 1.000000
vt 0.000000 1.000000
vt 0.000000 0.000000
vt 1.000000 0.000000
vt 1.000000 1.000000
vt 0.000000 1.000000
vn -0.0000 -0.0000 -1.0000
vn 0.0000 0.0000 1.0000
vn -0.6000 -0.8000 -0.0000
vn 0.6000 0.8000 0.0000
vn -1.0000 0.0000 0.0000
usemtl None_MNM_CW.png.001
s off
f 105/229/17 106/230/17 108/231/17 107/232/17
f 111/233/18 112/234/18 110/235/18 109/236/18
f 112/237/19 108/238/19 106/239/19 110/240/19
f 113/241/17 114/242/17 116/243/17 115/244/17
f 119/245/18 120/246/18 118/247/18 117/248/18
f 120/249/20 116/250/20 114/251/20 118/252/20
f 107/232/21 108/238/21 112/234/21 111/233/21
o Cube.004_Cube.015
v 0.000000 10.000000 1.000000
v 0.000000 10.500000 1.000000
v 0.000000 10.000000 -1.000000
v 0.000000 10.500000 -1.000000
v 2.000000 10.000000 1.000000
v 2.000000 12.000000 1.000000
v 2.000000 10.000000 -1.000000
v 2.000000 12.000000 -1.000000
vt 0.000000 0.000000
vt 1.000000 0.000000
vt 1.000000 1.000000
vt 0.000000 1.000000
vt 0.000000 0.000000
vt 1.000000 0.000000
vt 1.000000 1.000000
vt 0.000000 1.000000
vt 0.000000 0.000000
vt 1.000000 0.000000
vt 1.000000 1.000000
vt 0.000000 1.000000
vt 0.000000 0.000000
vt 1.000000 0.000000
vt 1.000000 1.000000
vt 0.000000 1.000000
vt 1.000000 0.000000
vt 1.000000 1.000000
vt 0.000000 0.000000
vt 0.000000 1.000000
vn -1.0000 0.0000 0.0000
vn 0.0000 0.0000 -1.0000
vn 1.0000 0.0000 0.0000
vn 0.0000 0.0000 1.0000
vn 0.0000 -1.0000 0.0000
vn -0.6000 0.8000 0.0000
usemtl None
s off
f 121/253/22 122/254/22 124/255/22 123/256/22
f 123/257/23 124/258/23 128/259/23 127/260/23
f 127/261/24 128/262/24 126/263/24 125/264/24
f 125/265/25 126/266/25 122/267/25 121/268/25
f 123/257/26 127/269/26 125/270/26 121/268/26
f 128/271/27 124/258/27 122/267/27 126/272/27
