# Blender v2.79 (sub 0) OBJ File: 'MNM_NN_Core.blend'
# www.blender.org
mtllib MNM_NN_EXT.mtl
o Cube.002
v -4.000000 -7.000000 3.000000
v -4.000000 -3.000000 3.000000
v -3.000000 -7.000000 -4.000000
v -4.000000 -3.000000 -3.000000
v 3.000000 -7.000000 4.000000
v 3.000000 -3.000000 4.000000
v 4.000000 -7.000000 -3.000000
v 4.000000 -3.000000 -3.000000
v -3.000000 -3.000000 4.000000
v -3.000000 -3.000000 4.000000
v -3.000000 -7.000000 4.000000
v 4.000000 -3.000000 3.000000
v 4.000000 -7.000000 3.000000
v 3.000000 -3.000000 -4.000000
v 3.000000 -7.000000 -4.000000
v -3.000000 -3.000000 -4.000000
v -4.000000 -7.000000 -3.000000
vt 0.375000 0.000000
vt 0.500000 0.000000
vt 0.500000 0.312500
vt 0.375000 0.312500
vt 0.375000 -0.000000
vt 0.500000 0.000000
vt 0.500000 0.312500
vt 0.375000 0.312500
vt 0.000000 0.343750
vt -0.000000 0.593750
vt 0.375000 0.593750
vt 0.375000 0.343750
vt 0.375000 0.000000
vt 0.500000 0.000000
vt 0.500000 0.312500
vt 0.375000 0.312500
vt 0.375000 0.000000
vt 0.500000 0.312500
vt 0.375000 0.312500
vt 0.000000 0.343750
vt 0.375000 0.343750
vt 0.375000 0.593750
vt 0.000000 0.593750
vt 0.375000 0.000000
vt 0.500000 0.000000
vt 0.500000 0.312500
vt 0.375000 0.312500
vt 0.500000 0.000000
vt 0.500000 0.312500
vt 0.375000 0.312500
vt 0.000000 0.343750
vt 0.375000 0.343750
vt 0.375000 0.593750
vt 0.000000 0.593750
vt 0.000000 0.343750
vt 0.375000 0.343750
vt 0.375000 0.593750
vt 0.000000 0.593750
vt 0.500000 0.000000
vt 0.375000 0.312500
vt 0.375000 -0.000000
vt 0.500000 0.000000
vt 0.500000 0.312500
vt 0.375000 0.312500
vt 0.375000 -0.000000
vt 0.500000 0.000000
vt 0.375000 -0.000000
vt 0.500000 0.000000
vt 0.500000 0.312500
vt 0.375000 0.312500
vn -0.7071 0.0000 -0.7071
vn 0.0000 -1.0000 0.0000
vn 0.0000 0.0000 1.0000
vn -0.7071 0.0000 0.7071
vn 0.7071 0.0000 0.7071
vn 1.0000 0.0000 0.0000
vn 0.7071 0.0000 -0.7071
vn 0.0000 1.0000 0.0000
vn -1.0000 0.0000 0.0000
vn 0.0000 0.0000 -1.0000
usemtl None
s off
f 4/1/1 16/2/1 3/3/1 17/4/1
f 1/5/2 13/6/2 5/7/2 11/8/2
f 6/9/3 10/10/3 11/11/3 5/12/3
f 2/13/4 1/14/4 11/15/4 10/16/4
f 5/17/5 13/6/5 12/18/5 6/19/5
f 13/20/6 7/21/6 8/22/6 12/23/6
f 14/24/7 8/25/7 7/26/7 15/27/7
f 2/13/8 10/28/8 6/29/8 12/30/8
f 17/31/9 1/32/9 2/33/9 4/34/9
f 15/35/10 3/36/10 16/37/10 14/38/10
f 4/1/8 2/39/8 12/18/8 8/40/8
f 16/41/8 4/42/8 8/43/8 14/44/8
f 3/45/2 15/46/2 7/26/2 17/4/2
f 17/47/2 7/48/2 13/49/2 1/50/2
