# Blender v2.79 (sub 0) OBJ File: 'MNM_board_template.blend'
# www.blender.org
mtllib 0.mtl
o Cube.006_Cube.005
v 3.000000 -6.000000 0.500000
v 3.000000 -5.000000 0.500000
v 0.500000 -6.000000 0.500000
v 0.500000 -5.000000 0.500000
v 3.000000 -6.000000 -0.500000
v 3.000000 -5.000000 -0.500000
v 0.500000 -6.000000 -0.500000
v 0.500000 -5.000000 -0.500000
vt -0.000000 -0.000000
vt 0.500000 -0.000000
vt 0.500000 0.500000
vt -0.000000 0.500000
vt 0.500000 0.500000
vt -0.000000 0.500000
vt -0.000000 -0.000000
vt 0.500000 -0.000000
vt -0.000000 -0.000000
vt 0.500000 -0.000000
vt 0.500000 0.500000
vt -0.000000 0.500000
vt 0.500000 0.500000
vt -0.000000 0.500000
vt -0.000000 -0.000000
vt 0.500000 -0.000000
vt -0.000000 -0.000000
vt -0.000000 0.500000
vt 0.000000 0.500000
vt -0.000000 -0.000000
vn 0.0000 0.0000 1.0000
vn -1.0000 0.0000 0.0000
vn -0.0000 0.0000 -1.0000
vn 1.0000 0.0000 0.0000
vn 0.0000 -1.0000 0.0000
vn 0.0000 1.0000 0.0000
usemtl None
s off
f 1/1/1 2/2/1 4/3/1 3/4/1
f 3/5/2 4/6/2 8/7/2 7/8/2
f 7/9/3 8/10/3 6/11/3 5/12/3
f 5/13/4 6/14/4 2/15/4 1/16/4
f 3/17/5 7/8/5 5/13/5 1/18/5
f 8/10/6 4/3/6 2/19/6 6/20/6
o Cube_Cube.001
v -0.500000 -6.000000 -3.000000
v -0.500000 -4.000000 -3.000000
v -0.500000 -6.000000 -6.000000
v -0.500000 -4.000000 -6.000000
v 2.500000 -6.000000 -3.000000
v 2.500000 -4.000000 -3.000000
v 2.500000 -6.000000 -6.000000
v 2.500000 -4.000000 -6.000000
vt 0.250000 0.500000
vt 0.500000 0.500000
vt 0.500000 0.750000
vt 0.250000 0.750000
vt 0.250000 0.500000
vt 0.500000 0.500000
vt 0.500000 0.750000
vt 0.250000 0.750000
vt 0.250000 0.500000
vt 0.500000 0.500000
vt 0.500000 0.750000
vt 0.250000 0.750000
vt 0.250000 0.500000
vt 0.500000 0.500000
vt 0.500000 0.750000
vt 0.250000 0.750000
vt 0.500000 0.500000
vt 0.500000 0.750000
vt 0.250000 0.500000
vt 0.250000 0.750000
vn -1.0000 0.0000 0.0000
vn 0.0000 0.0000 -1.0000
vn 1.0000 0.0000 0.0000
vn 0.0000 0.0000 1.0000
vn 0.0000 -1.0000 0.0000
vn 0.0000 1.0000 0.0000
usemtl None
s off
f 9/21/7 10/22/7 12/23/7 11/24/7
f 11/25/8 12/26/8 16/27/8 15/28/8
f 15/29/9 16/30/9 14/31/9 13/32/9
f 13/33/10 14/34/10 10/35/10 9/36/10
f 11/25/11 15/37/11 13/38/11 9/36/11
f 16/39/12 12/26/12 10/35/12 14/40/12
o Cube.003_Cube
v -5.500000 -6.000000 5.500000
v -5.500000 -3.000000 5.500000
v -5.500000 -6.000000 -0.500000
v -5.500000 -3.000000 -0.500000
v 0.500000 -6.000000 5.500000
v 0.500000 -3.000000 5.500000
v 0.500000 -6.000000 -0.500000
v 0.500000 -3.000000 -0.500000
vt 0.500000 0.000000
vt 0.593750 0.000000
vt 0.593750 0.500000
vt 0.500000 0.500000
vt 0.500000 0.093750
vt 0.500000 0.000000
vt 1.000000 -0.000000
vt 1.000000 0.093750
vt 0.593750 0.500000
vt 0.500000 0.500000
vt 0.500000 -0.000000
vt 0.593750 -0.000000
vt 1.000000 0.000000
vt 1.000000 0.093750
vt 0.500000 0.093750
vt 0.500000 -0.000000
vt 1.000000 -0.000000
vt 1.000000 0.500000
vt 0.500000 0.500000
vt 0.500000 -0.000000
vt 1.000000 0.000000
vt 1.000000 0.500000
vt 0.500000 0.500000
vn -1.0000 0.0000 0.0000
vn 0.0000 0.0000 -1.0000
vn 1.0000 0.0000 0.0000
vn 0.0000 0.0000 1.0000
vn 0.0000 -1.0000 0.0000
vn 0.0000 1.0000 0.0000
usemtl None
s off
f 17/41/13 18/42/13 20/43/13 19/44/13
f 19/45/14 20/46/14 24/47/14 23/48/14
f 23/49/15 24/50/15 22/51/15 21/52/15
f 21/53/16 22/54/16 18/55/16 17/41/16
f 19/56/17 23/57/17 21/58/17 17/59/17
f 24/60/18 20/61/18 18/62/18 22/63/18
o Cube.001_Cube.002
v -5.500000 -6.000000 -3.000000
v -5.500000 -4.000000 -3.000000
v -5.500000 -6.000000 -6.000000
v -5.500000 -4.000000 -6.000000
v -2.500000 -6.000000 -3.000000
v -2.500000 -4.000000 -3.000000
v -2.500000 -6.000000 -6.000000
v -2.500000 -4.000000 -6.000000
vt 0.250000 0.500000
vt 0.500000 0.500000
vt 0.500000 0.750000
vt 0.250000 0.750000
vt 0.250000 0.500000
vt 0.500000 0.500000
vt 0.500000 0.750000
vt 0.250000 0.750000
vt 0.250000 0.500000
vt 0.500000 0.500000
vt 0.500000 0.750000
vt 0.250000 0.750000
vt 0.250000 0.500000
vt 0.500000 0.500000
vt 0.500000 0.750000
vt 0.250000 0.750000
vt 0.500000 0.500000
vt 0.500000 0.750000
vt 0.250000 0.500000
vt 0.250000 0.750000
vn -1.0000 0.0000 0.0000
vn 0.0000 0.0000 -1.0000
vn 1.0000 0.0000 0.0000
vn 0.0000 0.0000 1.0000
vn 0.0000 -1.0000 0.0000
vn 0.0000 1.0000 0.0000
usemtl None_MNM_ACU.png.021
s off
f 25/64/19 26/65/19 28/66/19 27/67/19
f 27/68/20 28/69/20 32/70/20 31/71/20
f 31/72/21 32/73/21 30/74/21 29/75/21
f 29/76/22 30/77/22 26/78/22 25/79/22
f 27/68/23 31/80/23 29/81/23 25/79/23
f 32/82/24 28/69/24 26/78/24 30/83/24
o Cube.004_Cube.003
v 3.000000 -6.000000 0.500000
v 3.000000 -4.000000 0.500000
v 3.000000 -6.000000 -2.500000
v 3.000000 -4.000000 -2.500000
v 6.000000 -6.000000 0.500000
v 6.000000 -4.000000 0.500000
v 6.000000 -6.000000 -2.500000
v 6.000000 -4.000000 -2.500000
vt 0.250000 0.500000
vt 0.500000 0.500000
vt 0.500000 0.750000
vt 0.250000 0.750000
vt 0.250000 0.500000
vt 0.500000 0.500000
vt 0.500000 0.750000
vt 0.250000 0.750000
vt 0.250000 0.500000
vt 0.500000 0.500000
vt 0.500000 0.750000
vt 0.250000 0.750000
vt 0.250000 0.500000
vt 0.500000 0.500000
vt 0.500000 0.750000
vt 0.250000 0.750000
vt 0.500000 0.500000
vt 0.500000 0.750000
vt 0.250000 0.500000
vt 0.250000 0.750000
vn -1.0000 0.0000 0.0000
vn 0.0000 0.0000 -1.0000
vn 1.0000 0.0000 0.0000
vn 0.0000 0.0000 1.0000
vn 0.0000 -1.0000 0.0000
vn 0.0000 1.0000 0.0000
usemtl None_MNM_ACU.png.022
s off
f 33/84/25 34/85/25 36/86/25 35/87/25
f 35/88/26 36/89/26 40/90/26 39/91/26
f 39/92/27 40/93/27 38/94/27 37/95/27
f 37/96/28 38/97/28 34/98/28 33/99/28
f 35/88/29 39/100/29 37/101/29 33/99/29
f 40/102/30 36/89/30 34/98/30 38/103/30
o Cube.005_Cube.004
v 3.000000 -6.000000 5.500000
v 3.000000 -4.000000 5.500000
v 3.000000 -6.000000 2.500000
v 3.000000 -4.000000 2.500000
v 6.000000 -6.000000 5.500000
v 6.000000 -4.000000 5.500000
v 6.000000 -6.000000 2.500000
v 6.000000 -4.000000 2.500000
vt 0.250000 0.500000
vt 0.500000 0.500000
vt 0.500000 0.750000
vt 0.250000 0.750000
vt 0.250000 0.500000
vt 0.500000 0.500000
vt 0.500000 0.750000
vt 0.250000 0.750000
vt 0.250000 0.500000
vt 0.500000 0.500000
vt 0.500000 0.750000
vt 0.250000 0.750000
vt 0.250000 0.500000
vt 0.500000 0.500000
vt 0.500000 0.750000
vt 0.250000 0.750000
vt 0.500000 0.500000
vt 0.500000 0.750000
vt 0.250000 0.500000
vt 0.250000 0.750000
vn -1.0000 0.0000 0.0000
vn 0.0000 0.0000 -1.0000
vn 1.0000 0.0000 0.0000
vn 0.0000 0.0000 1.0000
vn 0.0000 -1.0000 0.0000
vn 0.0000 1.0000 0.0000
usemtl None_MNM_ACU.png.023
s off
f 41/104/31 42/105/31 44/106/31 43/107/31
f 43/108/32 44/109/32 48/110/32 47/111/32
f 47/112/33 48/113/33 46/114/33 45/115/33
f 45/116/34 46/117/34 42/118/34 41/119/34
f 43/108/35 47/120/35 45/121/35 41/119/35
f 48/122/36 44/109/36 42/118/36 46/123/36
o Cube.007_Cube.006
v 3.000000 -6.000000 4.500000
v 3.000000 -5.000000 4.500000
v 0.500000 -6.000000 4.500000
v 0.500000 -5.000000 4.500000
v 3.000000 -6.000000 3.500000
v 3.000000 -5.000000 3.500000
v 0.500000 -6.000000 3.500000
v 0.500000 -5.000000 3.500000
vt -0.000000 -0.000000
vt 0.500000 -0.000000
vt 0.500000 0.500000
vt -0.000000 0.500000
vt 0.500000 0.500000
vt -0.000000 0.500000
vt -0.000000 -0.000000
vt 0.500000 -0.000000
vt -0.000000 -0.000000
vt 0.500000 -0.000000
vt 0.500000 0.500000
vt -0.000000 0.500000
vt 0.500000 0.500000
vt -0.000000 0.500000
vt -0.000000 -0.000000
vt 0.500000 -0.000000
vt -0.000000 -0.000000
vt -0.000000 0.500000
vt 0.000000 0.500000
vt -0.000000 -0.000000
vn 0.0000 0.0000 1.0000
vn -1.0000 0.0000 0.0000
vn 0.0000 0.0000 -1.0000
vn 1.0000 0.0000 0.0000
vn 0.0000 -1.0000 0.0000
vn 0.0000 1.0000 0.0000
usemtl None_MNM_ACU.png.024
s off
f 49/124/37 50/125/37 52/126/37 51/127/37
f 51/128/38 52/129/38 56/130/38 55/131/38
f 55/132/39 56/133/39 54/134/39 53/135/39
f 53/136/40 54/137/40 50/138/40 49/139/40
f 51/140/41 55/131/41 53/136/41 49/141/41
f 56/133/42 52/126/42 50/142/42 54/143/42
o Cube.009
v -0.500000 -6.000000 -0.500000
v -0.500000 -5.000000 -0.500000
v -0.500000 -6.000000 -3.000000
v -0.500000 -5.000000 -3.000000
v 0.500000 -6.000000 -0.500000
v 0.500000 -5.000000 -0.500000
v 0.500000 -6.000000 -3.000000
v 0.500000 -5.000000 -3.000000
vt -0.000000 -0.000000
vt 0.500000 -0.000000
vt 0.500000 0.500000
vt -0.000000 0.500000
vt 0.500000 0.500000
vt -0.000000 0.500000
vt -0.000000 -0.000000
vt 0.500000 -0.000000
vt -0.000000 -0.000000
vt 0.500000 -0.000000
vt 0.500000 0.500000
vt -0.000000 0.500000
vt 0.500000 0.500000
vt -0.000000 0.500000
vt -0.000000 -0.000000
vt 0.500000 -0.000000
vt -0.000000 -0.000000
vt -0.000000 0.500000
vt 0.000000 0.500000
vt -0.000000 -0.000000
vn -1.0000 0.0000 0.0000
vn 0.0000 0.0000 -1.0000
vn 1.0000 0.0000 0.0000
vn 0.0000 0.0000 1.0000
vn 0.0000 -1.0000 0.0000
vn 0.0000 1.0000 0.0000
usemtl None_MNM_ACU.png.026
s off
f 57/144/43 58/145/43 60/146/43 59/147/43
f 59/148/44 60/149/44 64/150/44 63/151/44
f 63/152/45 64/153/45 62/154/45 61/155/45
f 61/156/46 62/157/46 58/158/46 57/159/46
f 59/160/47 63/151/47 61/156/47 57/161/47
f 64/153/48 60/146/48 58/162/48 62/163/48
o Cube.008
v -4.500000 -6.000000 -0.500000
v -4.500000 -5.000000 -0.500000
v -4.500000 -6.000000 -3.000000
v -4.500000 -5.000000 -3.000000
v -3.500000 -6.000000 -0.500000
v -3.500000 -5.000000 -0.500000
v -3.500000 -6.000000 -3.000000
v -3.500000 -5.000000 -3.000000
vt -0.000000 -0.000000
vt 0.500000 -0.000000
vt 0.500000 0.500000
vt -0.000000 0.500000
vt 0.500000 0.500000
vt -0.000000 0.500000
vt -0.000000 -0.000000
vt 0.500000 -0.000000
vt -0.000000 -0.000000
vt 0.500000 -0.000000
vt 0.500000 0.500000
vt -0.000000 0.500000
vt 0.500000 0.500000
vt -0.000000 0.500000
vt -0.000000 -0.000000
vt 0.500000 -0.000000
vt -0.000000 -0.000000
vt -0.000000 0.500000
vt 0.000000 0.500000
vt -0.000000 -0.000000
vn -1.0000 0.0000 0.0000
vn 0.0000 0.0000 -1.0000
vn 1.0000 0.0000 0.0000
vn 0.0000 0.0000 1.0000
vn 0.0000 -1.0000 0.0000
vn 0.0000 1.0000 0.0000
usemtl None_MNM_ACU.png.025
s off
f 65/164/49 66/165/49 68/166/49 67/167/49
f 67/168/50 68/169/50 72/170/50 71/171/50
f 71/172/51 72/173/51 70/174/51 69/175/51
f 69/176/52 70/177/52 66/178/52 65/179/52
f 67/180/53 71/171/53 69/176/53 65/181/53
f 72/173/54 68/166/54 66/182/54 70/183/54
