# Blender v2.79 (sub 0) OBJ File: 'card.obj.blend'
# www.blender.org
mtllib card.mtl
o Cube
v -0.125000 -6.000000 4.000000
v -0.125000 6.000000 4.000000
v -0.125000 -6.000000 -4.000000
v -0.125000 6.000000 -4.000000
v 0.125000 -6.000000 4.000000
v 0.125000 6.000000 4.000000
v 0.125000 -6.000000 -4.000000
v 0.125000 6.000000 -4.000000
vt 1.000000 1.000000
vt 1.000000 0.250000
vt 0.500000 0.250000
vt 0.500000 1.000000
vt 0.531250 0.250000
vt 0.531250 1.000000
vt 0.500000 0.250000
vt 0.500000 1.000000
vt -0.000000 1.000000
vt -0.000000 0.250000
vt 0.500000 0.250000
vt 0.531250 0.250000
vt 0.531250 1.000000
vt 0.500000 1.000000
vt 0.500000 0.218750
vt 0.000000 0.218750
vt 0.500000 0.218750
vt -0.000000 0.250000
vt 0.000000 0.218750
vn -1.0000 0.0000 0.0000
vn 0.0000 0.0000 -1.0000
vn 1.0000 0.0000 0.0000
vn 0.0000 0.0000 1.0000
vn 0.0000 -1.0000 0.0000
vn 0.0000 1.0000 0.0000
usemtl None
s off
f 1/1/1 2/2/1 4/3/1 3/4/1
f 3/4/2 4/3/2 8/5/2 7/6/2
f 7/7/3 8/8/3 6/9/3 5/10/3
f 5/11/4 6/12/4 2/13/4 1/14/4
f 3/15/5 7/7/5 5/10/5 1/16/5
f 8/17/6 4/3/6 2/18/6 6/19/6
