# Blender v2.79 (sub 0) OBJ File: 'MNM_board_template.blend'
# www.blender.org
mtllib mother_board.mtl
o Cube_Cube.001
v -8.000000 -6.500000 8.000000
v -8.000000 -6.000000 8.000000
v -8.000000 -6.500000 -8.000000
v -8.000000 -6.000000 -8.000000
v 8.000000 -6.500000 8.000000
v 8.000000 -6.000000 8.000000
v 8.000000 -6.500000 -8.000000
v 8.000000 -6.000000 -8.000000
vt 0.250000 0.750000
vt 0.500000 0.750000
vt 0.500000 1.000000
vt 0.250000 1.000000
vt 0.250000 0.750000
vt 0.500000 0.750000
vt 0.500000 1.000000
vt 0.250000 1.000000
vt 0.250000 0.750000
vt 0.500000 0.750000
vt 0.500000 1.000000
vt 0.250000 1.000000
vt 0.250000 0.750000
vt 0.500000 0.750000
vt 0.500000 1.000000
vt 0.250000 1.000000
vt 0.500000 0.750000
vt 0.500000 1.000000
vt 0.500000 0.500000
vt 1.000000 0.500000
vt 1.000000 1.000000
vn -1.0000 0.0000 0.0000
vn 0.0000 0.0000 -1.0000
vn 1.0000 0.0000 0.0000
vn 0.0000 0.0000 1.0000
vn 0.0000 -1.0000 0.0000
vn 0.0000 1.0000 0.0000
usemtl Material.001
s off
f 1/1/1 2/2/1 4/3/1 3/4/1
f 3/5/2 4/6/2 8/7/2 7/8/2
f 7/9/3 8/10/3 6/11/3 5/12/3
f 5/13/4 6/14/4 2/15/4 1/16/4
f 3/5/5 7/17/5 5/18/5 1/16/5
f 8/19/6 4/20/6 2/21/6 6/11/6
o Cube.001_Cube.002
v -8.000000 -8.000000 8.000000
v -8.000000 -7.000000 8.000000
v -8.000000 -8.000000 -8.000000
v -8.000000 -7.000000 -8.000000
v 8.000000 -8.000000 8.000000
v 8.000000 -7.000000 8.000000
v 8.000000 -8.000000 -8.000000
v 8.000000 -7.000000 -8.000000
vt 0.000000 0.750000
vt 0.250000 0.750000
vt 0.250000 1.000000
vt 0.000000 1.000000
vt 0.000000 0.750000
vt 0.250000 0.750000
vt 0.250000 1.000000
vt 0.000000 1.000000
vt 0.000000 0.750000
vt 0.250000 0.750000
vt 0.250000 1.000000
vt 0.000000 1.000000
vt 0.000000 0.750000
vt 0.250000 0.750000
vt 0.250000 1.000000
vt 0.000000 1.000000
vt 0.250000 0.750000
vt 0.250000 1.000000
vt 0.000000 0.750000
vt 0.000000 1.000000
vn -1.0000 0.0000 0.0000
vn 0.0000 0.0000 -1.0000
vn 1.0000 0.0000 0.0000
vn 0.0000 0.0000 1.0000
vn 0.0000 -1.0000 0.0000
vn 0.0000 1.0000 0.0000
usemtl Material.002
s off
f 9/22/7 10/23/7 12/24/7 11/25/7
f 11/26/8 12/27/8 16/28/8 15/29/8
f 15/30/9 16/31/9 14/32/9 13/33/9
f 13/34/10 14/35/10 10/36/10 9/37/10
f 11/26/11 15/38/11 13/39/11 9/37/11
f 16/40/12 12/27/12 10/36/12 14/41/12
o Cube.005_Cube.006
v 6.000000 -6.000000 7.000000
v 6.000000 -5.500000 7.000000
v 6.000000 -6.000000 6.000000
v 6.000000 -5.500000 6.000000
v 7.000000 -6.000000 7.000000
v 7.000000 -5.500000 7.000000
v 7.000000 -6.000000 6.000000
v 7.000000 -5.500000 6.000000
v -7.000000 -6.000000 7.000000
v -7.000000 -5.500000 7.000000
v -7.000000 -6.000000 6.000000
v -7.000000 -5.500000 6.000000
v -6.000000 -6.000000 7.000000
v -6.000000 -5.500000 7.000000
v -6.000000 -6.000000 6.000000
v -6.000000 -5.500000 6.000000
v -7.000000 -6.000000 -6.000000
v -7.000000 -5.500000 -6.000000
v -7.000000 -6.000000 -7.000000
v -7.000000 -5.500000 -7.000000
v -6.000000 -6.000000 -6.000000
v -6.000000 -5.500000 -6.000000
v -6.000000 -6.000000 -7.000000
v -6.000000 -5.500000 -7.000000
v 6.000000 -6.000000 -6.000000
v 6.000000 -5.500000 -6.000000
v 6.000000 -6.000000 -7.000000
v 6.000000 -5.500000 -7.000000
v 7.000000 -6.000000 -6.000000
v 7.000000 -5.500000 -6.000000
v 7.000000 -6.000000 -7.000000
v 7.000000 -5.500000 -7.000000
vt -0.000000 0.500000
vt 0.250000 0.500000
vt 0.250000 0.750000
vt 0.000000 0.750000
vt -0.000000 0.500000
vt 0.250000 0.500000
vt 0.250000 0.750000
vt 0.000000 0.750000
vt -0.000000 0.500000
vt 0.250000 0.500000
vt 0.250000 0.750000
vt 0.000000 0.750000
vt -0.000000 0.500000
vt 0.250000 0.500000
vt 0.250000 0.750000
vt 0.000000 0.750000
vt 0.250000 0.500000
vt 0.250000 0.750000
vt -0.000000 0.500000
vt 0.000000 0.750000
vt -0.000000 0.500000
vt 0.250000 0.500000
vt 0.250000 0.750000
vt 0.000000 0.750000
vt -0.000000 0.500000
vt 0.250000 0.500000
vt 0.250000 0.750000
vt 0.000000 0.750000
vt -0.000000 0.500000
vt 0.250000 0.500000
vt 0.250000 0.750000
vt 0.000000 0.750000
vt -0.000000 0.500000
vt 0.250000 0.500000
vt 0.250000 0.750000
vt 0.000000 0.750000
vt 0.250000 0.500000
vt 0.250000 0.750000
vt -0.000000 0.500000
vt 0.000000 0.750000
vt -0.000000 0.500000
vt 0.250000 0.500000
vt 0.250000 0.750000
vt 0.000000 0.750000
vt -0.000000 0.500000
vt 0.250000 0.500000
vt 0.250000 0.750000
vt 0.000000 0.750000
vt -0.000000 0.500000
vt 0.250000 0.500000
vt 0.250000 0.750000
vt 0.000000 0.750000
vt -0.000000 0.500000
vt 0.250000 0.500000
vt 0.250000 0.750000
vt 0.000000 0.750000
vt 0.250000 0.500000
vt 0.250000 0.750000
vt -0.000000 0.500000
vt 0.000000 0.750000
vt -0.000000 0.500000
vt 0.250000 0.500000
vt 0.250000 0.750000
vt 0.000000 0.750000
vt -0.000000 0.500000
vt 0.250000 0.500000
vt 0.250000 0.750000
vt 0.000000 0.750000
vt -0.000000 0.500000
vt 0.250000 0.500000
vt 0.250000 0.750000
vt 0.000000 0.750000
vt -0.000000 0.500000
vt 0.250000 0.500000
vt 0.250000 0.750000
vt 0.000000 0.750000
vt 0.250000 0.500000
vt 0.250000 0.750000
vt -0.000000 0.500000
vt 0.000000 0.750000
vn -1.0000 0.0000 0.0000
vn 0.0000 0.0000 -1.0000
vn 1.0000 0.0000 0.0000
vn 0.0000 0.0000 1.0000
vn 0.0000 -1.0000 0.0000
vn 0.0000 1.0000 0.0000
usemtl Material.005
s off
f 17/42/13 18/43/13 20/44/13 19/45/13
f 19/46/14 20/47/14 24/48/14 23/49/14
f 23/50/15 24/51/15 22/52/15 21/53/15
f 21/54/16 22/55/16 18/56/16 17/57/16
f 19/46/17 23/58/17 21/59/17 17/57/17
f 24/60/18 20/47/18 18/56/18 22/61/18
usemtl Material.001
f 25/62/13 26/63/13 28/64/13 27/65/13
f 27/66/14 28/67/14 32/68/14 31/69/14
f 31/70/15 32/71/15 30/72/15 29/73/15
f 29/74/16 30/75/16 26/76/16 25/77/16
f 27/66/17 31/78/17 29/79/17 25/77/17
f 32/80/18 28/67/18 26/76/18 30/81/18
usemtl Material.003
f 33/82/13 34/83/13 36/84/13 35/85/13
f 35/86/14 36/87/14 40/88/14 39/89/14
f 39/90/15 40/91/15 38/92/15 37/93/15
f 37/94/16 38/95/16 34/96/16 33/97/16
f 35/86/17 39/98/17 37/99/17 33/97/17
f 40/100/18 36/87/18 34/96/18 38/101/18
usemtl Material.004
f 41/102/13 42/103/13 44/104/13 43/105/13
f 43/106/14 44/107/14 48/108/14 47/109/14
f 47/110/15 48/111/15 46/112/15 45/113/15
f 45/114/16 46/115/16 42/116/16 41/117/16
f 43/106/17 47/118/17 45/119/17 41/117/17
f 48/120/18 44/107/18 42/116/18 46/121/18
o Cube.002_Cube.007
v 6.000000 -7.000000 7.000000
v 6.000000 -6.500000 7.000000
v 6.000000 -7.000000 6.000000
v 6.000000 -6.500000 6.000000
v 7.000000 -7.000000 7.000000
v 7.000000 -6.500000 7.000000
v 7.000000 -7.000000 6.000000
v 7.000000 -6.500000 6.000000
v -7.000000 -7.000000 7.000000
v -7.000000 -6.500000 7.000000
v -7.000000 -7.000000 6.000000
v -7.000000 -6.500000 6.000000
v -6.000000 -7.000000 7.000000
v -6.000000 -6.500000 7.000000
v -6.000000 -7.000000 6.000000
v -6.000000 -6.500000 6.000000
v -7.000000 -7.000000 -6.000000
v -7.000000 -6.500000 -6.000000
v -7.000000 -7.000000 -7.000000
v -7.000000 -6.500000 -7.000000
v -6.000000 -7.000000 -6.000000
v -6.000000 -6.500000 -6.000000
v -6.000000 -7.000000 -7.000000
v -6.000000 -6.500000 -7.000000
v 6.000000 -7.000000 -6.000000
v 6.000000 -6.500000 -6.000000
v 6.000000 -7.000000 -7.000000
v 6.000000 -6.500000 -7.000000
v 7.000000 -7.000000 -6.000000
v 7.000000 -6.500000 -6.000000
v 7.000000 -7.000000 -7.000000
v 7.000000 -6.500000 -7.000000
vt -0.000000 0.500000
vt 0.250000 0.500000
vt 0.250000 0.750000
vt -0.000000 0.750000
vt -0.000000 0.500000
vt 0.250000 0.500000
vt 0.250000 0.750000
vt -0.000000 0.750000
vt -0.000000 0.500000
vt 0.250000 0.500000
vt 0.250000 0.750000
vt -0.000000 0.750000
vt -0.000000 0.500000
vt 0.250000 0.500000
vt 0.250000 0.750000
vt -0.000000 0.750000
vt 0.250000 0.500000
vt 0.250000 0.750000
vt -0.000000 0.500000
vt -0.000000 0.750000
vt -0.000000 0.500000
vt 0.250000 0.500000
vt 0.250000 0.750000
vt -0.000000 0.750000
vt -0.000000 0.500000
vt 0.250000 0.500000
vt 0.250000 0.750000
vt -0.000000 0.750000
vt -0.000000 0.500000
vt 0.250000 0.500000
vt 0.250000 0.750000
vt -0.000000 0.750000
vt -0.000000 0.500000
vt 0.250000 0.500000
vt 0.250000 0.750000
vt -0.000000 0.750000
vt 0.250000 0.500000
vt 0.250000 0.750000
vt -0.000000 0.500000
vt -0.000000 0.750000
vt -0.000000 0.500000
vt 0.250000 0.500000
vt 0.250000 0.750000
vt -0.000000 0.750000
vt -0.000000 0.500000
vt 0.250000 0.500000
vt 0.250000 0.750000
vt -0.000000 0.750000
vt -0.000000 0.500000
vt 0.250000 0.500000
vt 0.250000 0.750000
vt -0.000000 0.750000
vt -0.000000 0.500000
vt 0.250000 0.500000
vt 0.250000 0.750000
vt -0.000000 0.750000
vt 0.250000 0.500000
vt 0.250000 0.750000
vt -0.000000 0.500000
vt -0.000000 0.750000
vt -0.000000 0.500000
vt 0.250000 0.500000
vt 0.250000 0.750000
vt -0.000000 0.750000
vt -0.000000 0.500000
vt 0.250000 0.500000
vt 0.250000 0.750000
vt -0.000000 0.750000
vt -0.000000 0.500000
vt 0.250000 0.500000
vt 0.250000 0.750000
vt -0.000000 0.750000
vt -0.000000 0.500000
vt 0.250000 0.500000
vt 0.250000 0.750000
vt -0.000000 0.750000
vt 0.250000 0.500000
vt 0.250000 0.750000
vt -0.000000 0.500000
vt -0.000000 0.750000
vn -1.0000 0.0000 0.0000
vn 0.0000 0.0000 -1.0000
vn 1.0000 0.0000 0.0000
vn 0.0000 0.0000 1.0000
vn 0.0000 -1.0000 0.0000
vn 0.0000 1.0000 0.0000
usemtl Material.009
s off
f 49/122/19 50/123/19 52/124/19 51/125/19
f 51/126/20 52/127/20 56/128/20 55/129/20
f 55/130/21 56/131/21 54/132/21 53/133/21
f 53/134/22 54/135/22 50/136/22 49/137/22
f 51/126/23 55/138/23 53/139/23 49/137/23
f 56/140/24 52/127/24 50/136/24 54/141/24
usemtl Material.008
f 57/142/19 58/143/19 60/144/19 59/145/19
f 59/146/20 60/147/20 64/148/20 63/149/20
f 63/150/21 64/151/21 62/152/21 61/153/21
f 61/154/22 62/155/22 58/156/22 57/157/22
f 59/146/23 63/158/23 61/159/23 57/157/23
f 64/160/24 60/147/24 58/156/24 62/161/24
usemtl Material.007
f 65/162/19 66/163/19 68/164/19 67/165/19
f 67/166/20 68/167/20 72/168/20 71/169/20
f 71/170/21 72/171/21 70/172/21 69/173/21
f 69/174/22 70/175/22 66/176/22 65/177/22
f 67/166/23 71/178/23 69/179/23 65/177/23
f 72/180/24 68/167/24 66/176/24 70/181/24
usemtl Material.006
f 73/182/19 74/183/19 76/184/19 75/185/19
f 75/186/20 76/187/20 80/188/20 79/189/20
f 79/190/21 80/191/21 78/192/21 77/193/21
f 77/194/22 78/195/22 74/196/22 73/197/22
f 75/186/23 79/198/23 77/199/23 73/197/23
f 80/200/24 76/187/24 74/196/24 78/201/24
