# Blender v2.79 (sub 0) OBJ File: 'MNM_HP.blend'
# www.blender.org
mtllib MNM_HP_EXT.mtl
o Cube.002
v -5.000000 -8.000000 5.000000
v -5.000000 -5.000000 5.000000
v -5.000000 -8.000000 -5.000000
v -5.000000 -5.000000 -5.000000
v 5.000000 -8.000000 5.000000
v 5.000000 -5.000000 5.000000
v 5.000000 -8.000000 -5.000000
v 5.000000 -5.000000 -5.000000
vt 0.625000 0.312500
vt 0.718750 0.312500
vt 0.718750 0.625000
vt 0.625000 0.625000
vt 0.625000 0.312500
vt 0.718750 0.312500
vt 0.718750 0.625000
vt 0.625000 0.625000
vt 0.625000 0.312500
vt 0.718750 0.312500
vt 0.718750 0.625000
vt 0.625000 0.625000
vt 0.625000 0.312500
vt 0.718750 0.312500
vt 0.718750 0.625000
vt 0.625000 0.625000
vt 0.000000 0.312500
vt 0.312500 0.312500
vt 0.312500 0.625000
vt -0.000000 0.625000
vt 0.312500 0.312500
vt 0.625000 0.312500
vt 0.625000 0.625000
vt 0.312500 0.625000
vn -1.0000 0.0000 0.0000
vn 0.0000 0.0000 -1.0000
vn 1.0000 0.0000 0.0000
vn 0.0000 0.0000 1.0000
vn 0.0000 -1.0000 0.0000
vn 0.0000 1.0000 0.0000
usemtl None
s off
f 1/1/1 2/2/1 4/3/1 3/4/1
f 3/5/2 4/6/2 8/7/2 7/8/2
f 7/9/3 8/10/3 6/11/3 5/12/3
f 5/13/4 6/14/4 2/15/4 1/16/4
f 3/17/5 7/18/5 5/19/5 1/20/5
f 8/21/6 4/22/6 2/23/6 6/24/6
o Cube.001
v -3.000000 -5.000000 3.000000
v -3.000000 -3.000000 3.000000
v -3.000000 -5.000000 -3.000000
v -3.000000 -3.000000 -3.000000
v 3.000000 -5.000000 3.000000
v 3.000000 -3.000000 3.000000
v 3.000000 -5.000000 -3.000000
v 3.000000 -3.000000 -3.000000
vt 0.375000 0.625000
vt 0.500000 0.625000
vt 0.500000 1.000000
vt 0.375000 1.000000
vt 0.375000 0.625000
vt 0.500000 0.625000
vt 0.500000 1.000000
vt 0.375000 1.000000
vt 0.375000 0.625000
vt 0.500000 0.625000
vt 0.500000 1.000000
vt 0.375000 1.000000
vt 0.375000 0.625000
vt 0.500000 0.625000
vt 0.500000 1.000000
vt 0.375000 1.000000
vt 0.000000 0.625000
vt 0.000000 1.000000
vt 0.000000 0.625000
vt 0.375000 0.625000
vt 0.375000 1.000000
vt 0.000000 1.000000
vn -1.0000 0.0000 0.0000
vn 0.0000 0.0000 -1.0000
vn 1.0000 0.0000 0.0000
vn 0.0000 0.0000 1.0000
vn 0.0000 -1.0000 0.0000
vn 0.0000 1.0000 0.0000
usemtl None
s off
f 9/25/7 10/26/7 12/27/7 11/28/7
f 11/29/8 12/30/8 16/31/8 15/32/8
f 15/33/9 16/34/9 14/35/9 13/36/9
f 13/37/10 14/38/10 10/39/10 9/40/10
f 11/41/11 15/33/11 13/36/11 9/42/11
f 16/43/12 12/44/12 10/45/12 14/46/12
